<?xml version="1.0"?>
<svg xmlns:rdf="http://www.w3.org/1999/02/22-rdf-syntax-ns#" xmlns="http://www.w3.org/2000/svg" xmlns:cc="http://creativecommons.org/ns#" xmlns:xlink="http://www.w3.org/1999/xlink" xmlns:dc="http://purl.org/dc/elements/1.1/" xmlns:svg="http://www.w3.org/2000/svg" id="svg4723" viewBox="0 0 701.81 664.45" version="1.1">
  <defs id="defs3">
    <filter id="filter4142" color-interpolation-filters="sRGB">
      <feGaussianBlur id="feGaussianBlur4144" stdDeviation="3.9708581"/>
    </filter>
    <linearGradient id="linearGradient4037" y2="4696.8" gradientUnits="userSpaceOnUse" x2="1475.8" gradientTransform="translate(4.4994 508.43)" y1="5124.3" x1="1480.3">
      <stop id="stop3976" offset="0"/>
      <stop id="stop3978" stop-opacity="0" offset="1"/>
    </linearGradient>
    <linearGradient id="linearGradient4039" y2="4602.6" gradientUnits="userSpaceOnUse" x2="1469.1" y1="4807.4" x1="1471.4">
      <stop id="stop3964" stop-color="#fff" offset="0"/>
      <stop id="stop3966" stop-color="#fff" stop-opacity="0" offset="1"/>
    </linearGradient>
    <filter id="filter3958" color-interpolation-filters="sRGB">
      <feGaussianBlur id="feGaussianBlur3960" stdDeviation="3.7445471"/>
    </filter>
    <filter id="filter3997" color-interpolation-filters="sRGB">
      <feGaussianBlur id="feGaussianBlur3999" stdDeviation="3.0873328"/>
    </filter>
    <linearGradient id="linearGradient4041" y2="4800.3" gradientUnits="userSpaceOnUse" x2="1509.5" gradientTransform="translate(0 503.93)" y1="4492.1" x1="1509.5">
      <stop id="stop4003" stop-color="#fff" offset="0"/>
      <stop id="stop4005" stop-color="#fff" stop-opacity="0" offset="1"/>
    </linearGradient>
    <linearGradient id="linearGradient4112" y2="5150.9" gradientUnits="userSpaceOnUse" x2="1492.1" gradientTransform="matrix(1 0 0 2.2649 0 -6294.3)" y1="4909.8" x1="1499">
      <stop id="stop4056" stop-color="#fff" offset="0"/>
      <stop id="stop4058" stop-color="#fff" stop-opacity="0" offset="1"/>
    </linearGradient>
  </defs>
  <g id="layer1" transform="translate(-31.952 -35.692)">
    <g id="g4729" transform="matrix(1.6416 0 0 1.6416 -2074.2 -8064)">
      <g id="g4146">
        <path id="rect4126" filter="url(#filter4142)" d="m1654.9 4943.7c-107.63 0.2706-215.28-0.275-322.91 0.3126-24.048 2.4514-42.319 26.789-39.122 50.625 0.3482 99.151-0.7236 198.35 0.5904 297.47 3.5874 23.083 27.309 39.961 50.344 36.906 106.3-0.2637 212.65 0.5529 318.91-0.4368 23.556-3.0737 40.992-27.078 37.904-50.469-0.2579-98.768 0.5433-197.56-0.4045-296.31-2.856-21.558-23.496-39.065-45.313-38.094z"/>
        <path id="rect4025" d="m1338 4946.6h318.39c22.106 0 39.903 17.797 39.903 39.903v295.89c0 22.106-17.797 39.903-39.903 39.903h-318.39c-22.106 0-39.903-17.797-39.903-39.903v-295.89c0-22.106 17.797-39.903 39.903-39.903z" stroke="#d40000" stroke-width="3" fill="#f00"/>
        <path id="rect4027" fill="url(#linearGradient4037)" d="m1340.2 4946.6h318.39c22.106 0 39.903 17.797 39.903 39.903v295.89c0 22.106-17.797 39.903-39.903 39.903h-318.39c-22.106 0-39.903-17.797-39.903-39.903v-295.89c0-22.106 17.797-39.903 39.903-39.903z"/>
        <path id="path4029" opacity=".88" d="m1655.5 4444.8c-4.793 0.5602-1.703 5.5631 1.7187 5.6875 18.515 7.8774 28.751 29.128 25.711 48.75-0.5387 89.326 1.237 178.71-1.0238 268-4.5621 21.944-28.442 36.766-50.219 33.153-96.339-0.5175-192.72 1.1117-289.03-0.9341-17.224-3.4141-30.038-18.915-33.474-35.615-2.4992-9.4552-4.5365 1.9534-4.1674 6.0214-0.9617 11.387 2.9521 23.441 12.579 30.125 9.322 7.6329 21.992 8.3985 33.5 7.1186 104.33-0.3933 208.7 0.892 313-0.7436 18.474-4.0375 29.092-24.974 25.465-42.75-0.5424-97.886 1.1097-195.85-0.9028-293.69-3.5787-14.574-18.078-25.681-33.156-25.125zm-322.56 0.4375c-19.294 2.3707-31.84 23.648-28.092 42.125 0.5441 10.149-1.013 20.746 0.8727 30.609 1.7428 6.6781 4.5781-3.6467 3.8752-6.6402 0.4203-15.714-2.9176-33.723 7.9063-46.812 6.2555-9.2117 16.709-13.421 26.187-18.438-3.582-0.394-7.1305-1.1153-10.75-0.8437z" transform="matrix(-1 0 0 -1 2992.2 9751.7)" filter="url(#filter3958)" fill="url(#linearGradient4039)"/>
        <path id="path4031" opacity=".88" filter="url(#filter3997)" d="m1598.2 5037.8c-9.9623-9.9623-26.008-9.9623-35.97 0l-59.47 59.47-59.469-59.47c-9.9623-9.9623-26.008-9.9623-35.97 0-9.9622 9.9622-9.9622 26.008 0 35.97l59.47 59.469-59.469 59.469c-9.9623 9.9623-9.9623 26.008 0 35.97 9.9622 9.9622 26.008 9.9622 35.97 0l59.469-59.469 59.469 59.469c9.9623 9.9622 26.008 9.9622 35.97 0 9.9623-9.9623 9.9623-26.008 0-35.97l-59.469-59.469 59.47-59.469c9.9622-9.9623 9.9622-26.008 0-35.97z" fill="#500"/>
        <path id="path4033" opacity=".88" d="m1596 5037.8c-9.9623-9.9623-26.008-9.9623-35.97 0l-59.47 59.47-59.469-59.47c-9.9623-9.9623-26.008-9.9623-35.97 0-9.9622 9.9622-9.9622 26.008 0 35.97l59.47 59.469-59.469 59.469c-9.9623 9.9623-9.9623 26.008 0 35.97 9.9622 9.9622 26.008 9.9622 35.97 0l59.469-59.469 59.469 59.469c9.9623 9.9622 26.008 9.9622 35.97 0 9.9623-9.9623 9.9623-26.008 0-35.97l-59.469-59.469 59.47-59.469c9.9622-9.9623 9.9622-26.008 0-35.97z" fill="url(#linearGradient4041)"/>
        <path id="path4035" opacity=".88" d="m1422 5037.1c-12.888 0.3243-22.574 16.226-15.281 27.375 7.0541 11.092 18.609 18.701 27.304 28.572 13.377 13.362 26.595 26.884 40.04 40.178-22.267 23.429-46.793 45.005-67.875 69.281-6.5945 12.425 5.1702 29.536 19.219 26.844 12.689-2.6098 19.206-15.339 28.552-23.114 15.51-15.508 31.011-31.025 46.542-46.511 23.524 22.354 45.11 46.963 69.594 68.094 12.603 6.2831 29.728-5.976 26.406-20.156-3.2457-12.593-15.821-19.025-23.696-28.54-15.272-15.274-30.553-30.54-45.804-45.835 22.289-23.4 46.802-45.024 67.906-69.344 6.6995-12.773-5.7763-30.049-20.156-26.594-12.217 3.1254-18.504 15.43-27.735 23.016-15.481 15.477-30.95 30.966-46.453 46.422-23.51-22.298-45.063-47.084-69.656-68.031-2.7314-1.3811-5.8614-1.921-8.9062-1.6563z" fill="url(#linearGradient4041)"/>
        <path id="rect4049" fill="url(#linearGradient4112)" d="m1649.2 4975.2c-87.321 3.2725-174.97-0.68-262.41 1.2972-17.539 0.6095-35.629 0.4567-52.813 2.2341-9.8401 13.748-8.3681 31.704-9.2927 47.812 0.8439 53.008 0.3442 106.02 0.4177 159.03 22.288 33.736 47.503 68.766 85.219 85.844 17.853 7.3697 38.859 3.365 53.715-8.512 34.985-22.734 62.859-53.962 95.59-79.673 28.895-26.378 59.253-55.2 98.838-63.326 3.4458-0.5141 7.8869 0.021 5.9844-5.0206-0.5634-43.09 4.3075-86.878-4.4704-129.38-1.8222-4.5276-4.9622-10.851-10.781-10.312z"/>
      </g>
    </g>
  </g>
  <metadata>
    <rdf:RDF>
      <cc:Work>
        <dc:format>image/svg+xml</dc:format>
        <dc:type rdf:resource="http://purl.org/dc/dcmitype/StillImage"/>
        <cc:license rdf:resource="http://creativecommons.org/licenses/publicdomain/"/>
        <dc:publisher>
          <cc:Agent rdf:about="http://openclipart.org/">
            <dc:title>Openclipart</dc:title>
          </cc:Agent>
        </dc:publisher>
        <dc:title>Close Button red</dc:title>
        <dc:date>2010-08-09T02:02:40</dc:date>
        <dc:description>Close button</dc:description>
        <dc:source>http://openclipart.org/detail/78613/close-button-red-by-inky2010</dc:source>
        <dc:creator>
          <cc:Agent>
            <dc:title>inky2010</dc:title>
          </cc:Agent>
        </dc:creator>
        <dc:subject>
          <rdf:Bag>
            <rdf:li>Close</rdf:li>
            <rdf:li>button</rdf:li>
            <rdf:li>buttons</rdf:li>
            <rdf:li>clip art</rdf:li>
            <rdf:li>clipart</rdf:li>
            <rdf:li>gloss</rdf:li>
            <rdf:li>glossy</rdf:li>
            <rdf:li>icon</rdf:li>
            <rdf:li>inky2010</rdf:li>
          </rdf:Bag>
        </dc:subject>
      </cc:Work>
      <cc:License rdf:about="http://creativecommons.org/licenses/publicdomain/">
        <cc:permits rdf:resource="http://creativecommons.org/ns#Reproduction"/>
        <cc:permits rdf:resource="http://creativecommons.org/ns#Distribution"/>
        <cc:permits rdf:resource="http://creativecommons.org/ns#DerivativeWorks"/>
      </cc:License>
    </rdf:RDF>
  </metadata>
</svg>
