<?xml version="1.0" encoding="iso-8859-1"?>
<!-- Generator: Adobe Illustrator 19.1.0, SVG Export Plug-In . SVG Version: 6.00 Build 0)  -->
<svg version="1.1" id="Capa_1" xmlns="http://www.w3.org/2000/svg" xmlns:xlink="http://www.w3.org/1999/xlink" x="0px" y="0px"
	 viewBox="0 0 53 53" style="enable-background:new 0 0 53 53;" xml:space="preserve">
<g id="cart">
	<g>
		<path d="M45,32.5l8-21H13l-4-8H0v2h8l11,27H45z M50,13.5l-6,17H20l-7-17H50z M25,37.5c-3.293,0-6,2.686-6,6c0,3.314,2.707,6,6,6
			s6-2.686,6-6C31,40.186,28.293,37.5,25,37.5z M25,47.5c-2.192,0-4-1.794-4-4s1.808-4,4-4s4,1.794,4,4S27.192,47.5,25,47.5z
			 M42,37.5c-3.293,0-6,2.686-6,6c0,3.314,2.707,6,6,6c3.293,0,6-2.686,6-6C48,40.186,45.293,37.5,42,37.5z M42,47.5
			c-2.192,0-4-1.794-4-4s1.808-4,4-4c2.192,0,4,1.794,4,4S44.192,47.5,42,47.5z"/>
	</g>
</g>
<g>
</g>
<g>
</g>
<g>
</g>
<g>
</g>
<g>
</g>
<g>
</g>
<g>
</g>
<g>
</g>
<g>
</g>
<g>
</g>
<g>
</g>
<g>
</g>
<g>
</g>
<g>
</g>
<g>
</g>
</svg>
